<svg xmlns="http://www.w3.org/2000/svg" xmlns:xlink="http://www.w3.org/1999/xlink" width="418.5" height="716.03" viewBox="0 0 418.5 716.03">
  <metadata><?xpacket begin="﻿" id="W5M0MpCehiHzreSzNTczkc9d"?>
<x:xmpmeta xmlns:x="adobe:ns:meta/" x:xmptk="Adobe XMP Core 5.6-c138 79.159824, 2016/09/14-01:09:01        ">
   <rdf:RDF xmlns:rdf="http://www.w3.org/1999/02/22-rdf-syntax-ns#">
      <rdf:Description rdf:about=""/>
   </rdf:RDF>
</x:xmpmeta>
                                                                                                    
                                                                                                    
                                                                                                    
                                                                                                    
                                                                                                    
                                                                                                    
                                                                                                    
                                                                                                    
                                                                                                    
                                                                                                    
                                                                                                    
                                                                                                    
                                                                                                    
                                                                                                    
                                                                                                    
                                                                                                    
                                                                                                    
                                                                                                    
                                                                                                    
                                                                                                    
                           
<?xpacket end="w"?></metadata>
<defs>
    <style>
      .cls-1 {
        fill: #fff;
        stroke: #f9f9ff;
        stroke-linejoin: round;
        stroke-width: 1px;
        fill-rule: evenodd;
        filter: url(#filter);
      }
    </style>
    <filter id="filter" x="1502" y="1628.97" width="623" height="715.03" filterUnits="userSpaceOnUse">
      <feOffset result="offset" dy="100" in="SourceAlpha"/>
      <feGaussianBlur result="blur" stdDeviation="5.477"/>
      <feFlood result="flood" flood-color="#abe500" flood-opacity="0.1"/>
      <feComposite result="composite" operator="in" in2="blur"/>
      <feBlend result="blend" in="SourceGraphic"/>
    </filter>
  </defs>
  <g transform="translate(-1501.5 -1628.47)" style="fill: #fff; filter: url(#filter)">
    <path id="path" class="cls-1" d="M1885.57,1749.64a24.717,24.717,0,0,1-33.1,11.08l-171.19-85.03a24.6,24.6,0,0,1-11.08-33.03h0a24.712,24.712,0,0,1,33.1-11.09l171.19,85.04a24.6,24.6,0,0,1,11.08,33.03h0Zm34.96,449.7a24.726,24.726,0,0,1-33.1,11.09l-88.36-43.89a24.611,24.611,0,0,1-11.08-33.04h0a24.717,24.717,0,0,1,33.1-11.08l88.36,43.89a24.6,24.6,0,0,1,11.08,33.03h0Zm160.79-304.14-430.73-213.97a24.657,24.657,0,1,0-22.03,44.12l59.52,29.56a24.657,24.657,0,1,1-22.03,44.12,24.712,24.712,0,0,0-33.1,11.09c-0.3.59-.56,1.2-0.81,1.81a27.353,27.353,0,0,1-6.69,8.86c-3.08,2.85-9.79,6.81-20.37,3.01l-38.36-19.06a24.657,24.657,0,1,0-22.03,44.12l100.27,49.81c9.42,6.13,10.3,13.85,9.87,18.03-0.54,5.37-1.52,7.32-3.32,11.25-0.22.39-.44,0.78-0.64,1.19a24.588,24.588,0,0,0,11.08,33.02l13.83,6.87a24.657,24.657,0,1,1-22.03,44.12l-46.96-23.32a24.65,24.65,0,1,0-22.02,44.11l171.19,85.04a24.715,24.715,0,0,0,33.1-11.09c0.28-.57.54-1.16,0.78-1.75a27.4,27.4,0,0,1,6.68-8.84c3.17-2.93,10.15-7.02,21.22-2.69l87.25,43.34a24.653,24.653,0,1,0,22.03-44.11l-54.9-27.27c-9.26-6.12-10.13-13.78-9.71-17.93,0.66-6.46,1.93-7.96,4.53-13.93l-0.06.02a24.6,24.6,0,0,0-11.72-31.64l-50.92-25.3a24.655,24.655,0,1,1,22.02-44.12l66.27,32.92a24.655,24.655,0,1,0,22.02-44.12l-11.04-5.49a24.65,24.65,0,1,1,22.02-44.11l133.76,66.44A24.653,24.653,0,1,0,2081.32,1895.2Z" style="stroke: inherit; filter: none; fill: inherit"/>
  </g>
  <use transform="translate(-1501.5 -1628.47)" xlink:href="#path" style="stroke: #f9f9ff; filter: none; fill: none"/>
</svg>
